<svg id="_x33_0" enable-background="new 0 0 64 64" height="512" viewBox="0 0 64 64" width="512" xmlns="http://www.w3.org/2000/svg" xmlns:xlink="http://www.w3.org/1999/xlink"><linearGradient id="SVGID_1_" gradientUnits="userSpaceOnUse" x1="32" x2="32" y1="63" y2="1"><stop offset="0" stop-color="#9f2fff"/><stop offset="1" stop-color="#0bb1d3"/></linearGradient><path d="m17 1c-8.822 0-16 7.178-16 16s7.178 16 16 16 16-7.178 16-16-7.178-16-16-16zm-3.858 23c-.583-1.701-1.006-3.701-1.105-6h9.927c-.1 2.295-.526 4.297-1.112 6zm6.901 2c-1.068 2.271-2.309 3.809-3.045 4.598-.739-.788-1.983-2.322-3.051-4.598zm-16.992-8h6.986c.089 2.259.455 4.263.987 6h-6.13c-1.039-1.789-1.689-3.825-1.843-6zm17.807-8c.583 1.701 1.006 3.701 1.105 6h-9.927c.1-2.295.526-4.297 1.113-6zm-6.901-2c1.068-2.27 2.309-3.808 3.045-4.598.74.788 1.983 2.322 3.051 4.598zm-3.921 8h-6.985c.155-2.175.805-4.211 1.844-6h6.13c-.533 1.737-.9 3.741-.989 6zm13.928 2h6.986c-.155 2.175-.805 4.211-1.844 6h-6.13c.532-1.737.899-3.741.988-6zm0-2c-.089-2.259-.455-4.263-.987-6h6.13c1.039 1.789 1.689 3.825 1.844 6zm3.744-8h-5.457c-.859-2.062-1.886-3.648-2.76-4.765 3.275.592 6.157 2.317 8.217 4.765zm-13.199-4.765c-.874 1.117-1.901 2.703-2.76 4.765h-5.457c2.06-2.448 4.942-4.173 8.217-4.765zm-8.217 22.765h5.457c.859 2.062 1.886 3.648 2.76 4.765-3.275-.592-6.157-2.317-8.217-4.765zm13.199 4.765c.874-1.117 1.901-2.703 2.76-4.765h5.457c-2.06 2.448-4.942 4.173-8.217 4.765zm35.509 19.235v1h-2v-1c0-.552-.448-1-1-1h-1v1c0 .552.448 1 1 1 1.654 0 3 1.346 3 3v3h-2v2h-2v-2.184c-1.161-.414-2-1.514-2-2.816v-1h2v1c0 .552.448 1 1 1h1v-1c0-.552-.448-1-1-1-1.654 0-3-1.346-3-3v-3h2v-2h2v2.184c1.161.414 2 1.514 2 2.816zm-3-9c-6.065 0-11 4.935-11 11s4.935 11 11 11 11-4.935 11-11-4.935-11-11-11zm0 20c-4.963 0-9-4.037-9-9s4.037-9 9-9 9 4.037 9 9-4.037 9-9 9zm-46-28v4h-2v22h2v4h2v-4h2v-22h-2v-4zm2 24h-2v-18h2zm47-56v2h-2v22h2v4h2v-4h2v-22h-2v-2zm2 22h-2v-18h2zm-31 10v2h-2v14h2v2h2v-2h2v-14h-2v-2zm2 14h-2v-10h2zm-12-8v4h-2v8h2v4h2v-4h2v-8h-2v-4zm2 10h-2v-4h2zm27-30v4h-2v16h6v-16h-2v-4zm2 18h-2v-12h2zm-14 0h2v4h2v-4h2v-8h-2v-4h-2v4h-2zm2-6h2v4h-2zm-15 30h10v2h-10zm0-2h10.414l4.301-4.301c.391.188.823.301 1.285.301 1.654 0 3-1.346 3-3s-1.346-3-3-3-3 1.346-3 3c0 .462.113.894.301 1.285l-3.715 3.715h-9.586zm16-8c.552 0 1 .448 1 1s-.448 1-1 1-1-.448-1-1 .448-1 1-1zm15-48h-8v-2h8zm-12.715 6.301c-.391-.188-.823-.301-1.285-.301-1.654 0-3 1.346-3 3s1.346 3 3 3 3-1.346 3-3c0-.462-.113-.894-.301-1.285l3.715-3.715h7.586v-2h-8.414zm-1.285 3.699c-.552 0-1-.449-1-1s.448-1 1-1 1 .449 1 1-.448 1-1 1z" fill="url(#SVGID_1_)"/></svg>