<?xml version="1.0"?>
<svg xmlns="http://www.w3.org/2000/svg" viewBox="0 0 512 512" width="512" height="512" class=""><g><g id="Out_line" data-name="Out line"><path d="M480,352H456V296a8.00008,8.00008,0,0,0-8-8H264a8.00008,8.00008,0,0,0-8,8v64a8.00008,8.00008,0,0,0,8,8h24v48H272V392a8.00008,8.00008,0,0,0-8-8H208V360a8.00008,8.00008,0,0,0-8-8H120a8.00008,8.00008,0,0,0-8,8v24H24a8.00008,8.00008,0,0,0-8,8v32a8.00008,8.00008,0,0,0,8,8h8v16H24a8.00008,8.00008,0,0,0-8,8v32a8.00008,8.00008,0,0,0,8,8H448a8.00008,8.00008,0,0,0,8-8V432h24a8.00008,8.00008,0,0,0,8-8V360A8.00008,8.00008,0,0,0,480,352Zm-40,0H376V304h64Zm-64,64V368h16v48ZM208,448V432h64v16Zm-16-16v16H128V432Zm-80-16V400h64v16Zm0,16v16H48V432Zm64,32v16H112V464Zm16,0h64v16H192Zm80,0h8a8.00008,8.00008,0,0,0,8-8V432h40v48H272Zm72-32h16v48H344Zm0-80V304h16v48Zm-72-48h56v48H272Zm32,64h56v48H304Zm-48,48H192V400h64ZM128,368h64v16H128ZM32,400H96v16H32Zm0,64H96v16H32Zm408,16H376V432h64Zm32-64H408V368h64Z" data-original="#000000" class="active-path" style="fill:#FFFFFF" data-old_color="#000000"/><path d="M120,336V248a8.00008,8.00008,0,0,0-8-8H80a8.00008,8.00008,0,0,0-8,8V368H88V256h16v80Z" data-original="#000000" class="active-path" style="fill:#FFFFFF" data-old_color="#000000"/><path d="M200,336V208a8.00008,8.00008,0,0,0-8-8H160a8.00008,8.00008,0,0,0-8,8V336h16V216h16V336Z" data-original="#000000" class="active-path" style="fill:#FFFFFF" data-old_color="#000000"/><path d="M280,272V232a8.00008,8.00008,0,0,0-8-8H240a8.00008,8.00008,0,0,0-8,8v40h16V240h16v32Z" data-original="#000000" class="active-path" style="fill:#FFFFFF" data-old_color="#000000"/><path d="M360,272V208a8.00008,8.00008,0,0,0-8-8H320a8.00008,8.00008,0,0,0-8,8v64h16V216h16v56Z" data-original="#000000" class="active-path" style="fill:#FFFFFF" data-old_color="#000000"/><path d="M440,272V144a8.00008,8.00008,0,0,0-8-8H400a8.00008,8.00008,0,0,0-8,8V272h16V152h16V272Z" data-original="#000000" class="active-path" style="fill:#FFFFFF" data-old_color="#000000"/><path d="M98.34277,221.65674a8.00063,8.00063,0,0,0,11.31446,0L200,131.314l74.34277,74.34278a8.00122,8.00122,0,0,0,11.31446,0L392,99.314V112a8.00008,8.00008,0,0,0,8,8h32a8.00008,8.00008,0,0,0,8-8V24a8.00008,8.00008,0,0,0-8-8H344a8.00008,8.00008,0,0,0-8,8V56a8.00008,8.00008,0,0,0,8,8h12.68652L280,140.686,205.65723,66.34326a8.00122,8.00122,0,0,0-11.31446,0l-120,120a8,8,0,0,0,0,11.31348ZM200,83.314l74.34277,74.34278a8.00122,8.00122,0,0,0,11.31446,0l96-96A8.00038,8.00038,0,0,0,376,48H352V32h72v72H408V80a8.0001,8.0001,0,0,0-13.65723-5.65674L280,188.686l-74.34277-74.34278a8.00122,8.00122,0,0,0-11.31446,0L104,204.686,91.31348,192Z" data-original="#000000" class="active-path" style="fill:#FFFFFF" data-old_color="#000000"/></g></g> </svg>
